<?xml version="1.0" standalone="no"?>
<!DOCTYPE svg PUBLIC "-//W3C//DTD SVG 20010904//EN"
 "http://www.w3.org/TR/2001/REC-SVG-20010904/DTD/svg10.dtd">
<svg version="1.0" xmlns="http://www.w3.org/2000/svg"
 width="128.000000pt" height="128.000000pt" viewBox="0 0 128.000000 128.000000"
 preserveAspectRatio="xMidYMid meet">
<metadata>
Created by potrace 1.10, written by Peter Selinger 2001-2011
</metadata>
<g transform="translate(0.000000,128.000000) scale(0.100000,-0.100000)"
fill="#000000" stroke="none">
<path d="M560 1258 c-121 -62 -147 -210 -54 -303 l34 -34 -34 -16 c-83 -40
-148 -139 -159 -242 l-6 -53 129 0 130 0 0 -60 0 -60 -245 0 -245 0 0 -95 0
-95 -55 0 -55 0 0 -150 0 -150 150 0 150 0 0 150 0 150 -55 0 -55 0 0 60 0 60
205 0 205 0 0 -60 0 -60 -55 0 -55 0 0 -150 0 -150 150 0 150 0 0 150 0 150
-55 0 -55 0 0 60 0 60 205 0 205 0 0 -60 0 -60 -55 0 -55 0 0 -150 0 -150 150
0 150 0 0 150 0 150 -55 0 -55 0 0 95 0 95 -245 0 -245 0 0 60 0 60 130 0 129
0 -6 53 c-11 103 -76 202 -159 242 l-34 16 34 34 c66 66 74 174 19 243 -36 45
-105 82 -153 82 -20 0 -56 -10 -80 -22z"/>
</g>
</svg>
