<?xml version="1.0" standalone="no"?>
<!DOCTYPE svg PUBLIC "-//W3C//DTD SVG 20010904//EN"
 "http://www.w3.org/TR/2001/REC-SVG-20010904/DTD/svg10.dtd">
<svg version="1.0" xmlns="http://www.w3.org/2000/svg"
 width="128.000000pt" height="128.000000pt" viewBox="0 0 128.000000 128.000000"
 preserveAspectRatio="xMidYMid meet">
<metadata>
Created by potrace 1.10, written by Peter Selinger 2001-2011
</metadata>
<g transform="translate(0.000000,128.000000) scale(0.100000,-0.100000)"
fill="#000000" stroke="none">
<path d="M280 1050 l0 -230 132 0 c130 0 132 0 180 -31 l48 -31 48 31 c48 31
50 31 180 31 l132 0 0 230 0 230 -360 0 -360 0 0 -230z m485 64 c14 -22 15
-28 3 -38 -7 -7 -41 -38 -75 -70 l-61 -58 -51 38 c-28 21 -51 41 -51 45 0 4 9
17 19 30 19 24 19 24 51 5 l32 -18 47 46 c25 25 51 46 57 46 7 0 19 -12 29
-26z"/>
<path d="M258 726 c-92 -34 -139 -95 -146 -186 -5 -72 9 -115 53 -167 l35 -41
-30 -12 c-82 -34 -158 -152 -167 -261 l-6 -59 643 0 643 0 -6 59 c-9 109 -85
227 -167 261 l-30 12 35 41 c45 52 58 95 53 168 -15 201 -283 267 -395 97 -54
-80 -37 -222 33 -277 30 -24 30 -26 -6 -41 -43 -18 -127 -114 -141 -161 -7
-21 -15 -39 -19 -39 -4 0 -12 18 -19 39 -14 47 -98 143 -141 161 -36 15 -36
17 -6 41 70 55 87 197 33 277 -52 79 -167 119 -249 88z"/>
</g>
</svg>
