<?xml version="1.0" standalone="no"?>
<!DOCTYPE svg PUBLIC "-//W3C//DTD SVG 20010904//EN"
 "http://www.w3.org/TR/2001/REC-SVG-20010904/DTD/svg10.dtd">
<svg version="1.0" xmlns="http://www.w3.org/2000/svg"
 width="128.000000pt" height="128.000000pt" viewBox="0 0 128.000000 128.000000"
 preserveAspectRatio="xMidYMid meet">
<metadata>
Created by potrace 1.10, written by Peter Selinger 2001-2011
</metadata>
<g transform="translate(0.000000,128.000000) scale(0.100000,-0.100000)"
fill="#000000" stroke="none">
<path d="M552 1269 c-113 -22 -234 -117 -284 -225 -34 -73 -52 -170 -43 -236
9 -66 57 -160 110 -216 l45 -49 0 -92 0 -91 260 0 260 0 0 91 0 92 45 49 c53
56 101 150 110 216 3 26 2 76 -4 111 -39 242 -260 397 -499 350z m164 -287
c-3 -9 -19 -49 -35 -87 l-30 -70 50 -3 c27 -2 49 -6 49 -9 0 -4 -19 -58 -42
-120 -45 -119 -54 -124 -57 -28 -2 79 -7 85 -67 85 -63 0 -61 -4 -43 127 18
135 8 123 100 123 72 0 80 -2 75 -18z"/>
<path d="M97 1061 l-18 -30 38 -26 38 -25 17 22 c10 13 18 28 18 35 0 9 -58
53 -72 53 -2 0 -12 -13 -21 -29z"/>
<path d="M1123 1069 c-37 -24 -40 -35 -15 -67 l17 -22 38 25 38 26 -18 30
c-21 34 -19 34 -60 8z"/>
<path d="M0 890 l0 -40 65 0 65 0 0 40 0 40 -65 0 -65 0 0 -40z"/>
<path d="M1150 890 l0 -40 65 0 65 0 0 40 0 40 -65 0 -65 0 0 -40z"/>
<path d="M125 784 c-11 -8 -26 -19 -34 -23 -10 -6 -11 -13 -2 -27 27 -48 26
-47 70 -19 l41 27 -21 29 c-23 33 -27 34 -54 13z"/>
<path d="M1101 771 l-21 -29 41 -27 c44 -28 43 -28 70 18 6 10 9 20 7 21 -33
24 -67 46 -71 46 -3 0 -15 -13 -26 -29z"/>
<path d="M380 210 l0 -70 55 0 55 0 0 -70 0 -70 150 0 150 0 0 70 0 70 55 0
55 0 0 70 0 70 -260 0 -260 0 0 -70z"/>
</g>
</svg>
