<?xml version="1.0" standalone="no"?>
<!DOCTYPE svg PUBLIC "-//W3C//DTD SVG 20010904//EN"
 "http://www.w3.org/TR/2001/REC-SVG-20010904/DTD/svg10.dtd">
<svg version="1.0" xmlns="http://www.w3.org/2000/svg"
 width="128.000000pt" height="128.000000pt" viewBox="0 0 128.000000 128.000000"
 preserveAspectRatio="xMidYMid meet">
<metadata>
Created by potrace 1.10, written by Peter Selinger 2001-2011
</metadata>
<g transform="translate(0.000000,128.000000) scale(0.100000,-0.100000)"
fill="#000000" stroke="none">
<path d="M239 1249 c-23 -33 -23 -33 25 -61 16 -8 22 -6 37 13 24 32 24 34
-10 58 l-29 21 -23 -31z"/>
<path d="M986 1257 c-28 -23 -29 -24 -11 -50 21 -32 19 -32 56 -10 35 21 35
21 6 56 l-22 27 -29 -23z"/>
<path d="M585 1246 c-91 -41 -117 -150 -55 -229 11 -14 20 -37 20 -51 l0 -26
90 0 90 0 0 26 c0 14 9 37 20 51 48 61 45 146 -7 195 -49 47 -103 58 -158 34z"/>
<path d="M160 1105 l0 -35 55 0 55 0 0 35 0 35 -55 0 -55 0 0 -35z"/>
<path d="M1010 1105 l0 -35 55 0 55 0 0 35 0 35 -55 0 -55 0 0 -35z"/>
<path d="M246 1017 c-28 -23 -29 -24 -11 -50 9 -15 20 -27 24 -27 5 0 38 20
59 36 5 4 -31 64 -38 64 -3 0 -18 -11 -34 -23z"/>
<path d="M976 1009 c-20 -33 -20 -33 28 -61 16 -8 22 -6 37 13 10 13 19 27 19
31 0 6 -54 48 -62 48 -2 0 -12 -14 -22 -31z"/>
<path d="M326 823 c-8 -57 6 -139 33 -190 26 -51 92 -116 139 -137 29 -13 46
-32 71 -77 31 -56 34 -59 71 -59 37 0 40 3 71 59 25 45 42 64 71 77 42 19 117
94 142 142 24 46 38 130 30 185 l-6 47 -308 0 -308 0 -6 -47z"/>
<path d="M400 452 c-137 -79 -240 -256 -240 -412 l0 -40 158 0 159 0 32 158
32 158 -46 82 c-25 45 -47 82 -48 81 -1 -1 -22 -13 -47 -27z"/>
<path d="M785 397 l-46 -81 32 -158 32 -158 159 0 158 0 0 40 c0 158 -105 336
-242 412 l-48 26 -45 -81z m125 -157 c0 -40 0 -40 -40 -40 -40 0 -40 0 -40 40
0 40 0 40 40 40 40 0 40 0 40 -40z"/>
<path d="M610 277 c0 -2 -13 -65 -29 -140 l-29 -137 88 0 88 0 -29 137 c-16
75 -29 138 -29 140 0 1 -13 3 -30 3 -16 0 -30 -2 -30 -3z"/>
</g>
</svg>
