<?xml version="1.0" standalone="no"?>
<!DOCTYPE svg PUBLIC "-//W3C//DTD SVG 20010904//EN"
 "http://www.w3.org/TR/2001/REC-SVG-20010904/DTD/svg10.dtd">
<svg version="1.0" xmlns="http://www.w3.org/2000/svg"
 width="128.000000pt" height="128.000000pt" viewBox="0 0 128.000000 128.000000"
 preserveAspectRatio="xMidYMid meet">
<metadata>
Created by potrace 1.10, written by Peter Selinger 2001-2011
</metadata>
<g transform="translate(0.000000,128.000000) scale(0.100000,-0.100000)"
fill="#000000" stroke="none">
<path d="M510 1180 l0 -60 -105 0 -105 0 0 -240 0 -240 340 0 340 0 0 240 0
240 -105 0 -105 0 0 60 0 60 -130 0 -130 0 0 -60z m180 -40 c0 -17 -7 -20 -50
-20 -43 0 -50 3 -50 20 0 17 7 20 50 20 43 0 50 -3 50 -20z"/>
<path d="M62 1078 l-21 -32 42 -28 c23 -15 44 -28 47 -28 3 0 13 13 23 29 l17
30 -44 30 -44 31 -20 -32z"/>
<path d="M1152 1079 l-42 -30 17 -30 c10 -16 20 -29 23 -29 3 0 24 13 47 28
l42 28 -21 32 c-11 18 -21 32 -21 32 -1 -1 -21 -14 -45 -31z"/>
<path d="M0 880 l0 -40 75 0 75 0 0 40 0 40 -75 0 -75 0 0 -40z"/>
<path d="M1130 880 l0 -40 75 0 75 0 0 40 0 40 -75 0 -75 0 0 -40z"/>
<path d="M84 744 c-21 -15 -40 -27 -41 -28 -1 -1 7 -16 18 -34 l21 -32 44 31
c24 16 44 32 44 35 0 10 -33 54 -40 54 -4 0 -25 -12 -46 -26z"/>
<path d="M1126 745 c-9 -13 -16 -27 -16 -29 0 -8 73 -56 85 -56 6 0 18 13 27
28 l17 28 -43 27 c-24 15 -45 27 -48 27 -3 0 -13 -11 -22 -25z"/>
<path d="M370 290 l0 -250 270 0 270 0 0 250 0 250 -270 0 -270 0 0 -250z
m330 5 l0 -115 -40 0 -40 0 0 85 c0 78 -2 85 -20 85 -16 0 -20 7 -20 30 0 30
0 30 60 30 l60 0 0 -115z"/>
<path d="M70 200 l0 -161 113 3 112 3 3 158 3 157 -116 0 -115 0 0 -160z"/>
<path d="M982 203 l3 -158 113 -3 112 -3 0 161 0 160 -115 0 -116 0 3 -157z"/>
</g>
</svg>
