<?xml version="1.0" standalone="no"?>
<!DOCTYPE svg PUBLIC "-//W3C//DTD SVG 20010904//EN"
 "http://www.w3.org/TR/2001/REC-SVG-20010904/DTD/svg10.dtd">
<svg version="1.0" xmlns="http://www.w3.org/2000/svg"
 width="128.000000pt" height="128.000000pt" viewBox="0 0 128.000000 128.000000"
 preserveAspectRatio="xMidYMid meet">
<metadata>
Created by potrace 1.10, written by Peter Selinger 2001-2011
</metadata>
<g transform="translate(0.000000,128.000000) scale(0.100000,-0.100000)"
fill="#000000" stroke="none">
<path d="M52 1068 l3 -213 120 -5 c119 -5 121 -5 196 -47 42 -24 79 -43 82
-43 4 0 7 20 7 45 l0 45 90 0 90 0 0 215 0 215 -295 0 -295 0 2 -212z m418 2
l0 -40 -120 0 -120 0 0 40 0 40 120 0 120 0 0 -40z"/>
<path d="M730 940 l0 -180 75 0 75 0 0 -46 0 -45 84 45 c81 45 85 46 175 46
l91 0 0 180 0 180 -250 0 -250 0 0 -180z m350 0 l0 -40 -100 0 -100 0 0 40 0
40 100 0 100 0 0 -40z"/>
<path d="M555 691 c-75 -35 -125 -111 -125 -191 0 -51 19 -96 58 -142 l31 -35
-24 -11 c-83 -38 -154 -147 -163 -249 l-5 -63 313 0 313 0 -5 63 c-9 102 -80
211 -163 249 l-24 11 31 35 c60 69 74 151 39 227 -49 106 -173 154 -276 106z"/>
<path d="M230 628 c-127 -36 -179 -184 -103 -292 l30 -43 -45 -34 c-60 -45
-102 -122 -109 -199 l-6 -60 125 0 124 0 11 74 c12 89 47 166 100 226 l40 44
-19 43 c-21 47 -26 113 -15 184 l8 46 -45 12 c-51 13 -49 13 -96 -1z"/>
<path d="M947 628 l-38 -10 8 -47 c11 -71 6 -137 -15 -184 l-19 -43 40 -44
c53 -60 88 -137 100 -226 l11 -74 124 0 125 0 -6 60 c-7 77 -49 154 -109 199
l-45 34 30 43 c77 110 23 257 -108 293 -46 12 -47 12 -98 -1z"/>
</g>
</svg>
